<svg version="1.1" viewBox="0.0 0.0 24 24" fill="none" stroke="none" stroke-linecap="square" stroke-miterlimit="10" xmlns:xlink="http://www.w3.org/1999/xlink" xmlns="http://www.w3.org/2000/svg"><clipPath id="p.0"><path d="m0 0l960.0 0l0 540.0l-960.0 0l0 -540.0z" clip-rule="nonzero"/></clipPath><g clip-path="url(#p.0)"><path fill="#ffffff" d="m0 0l960.0 0l0 540.0l-960.0 0z" fill-rule="evenodd"/><path fill="#ffffff" d="m578.20233 337.28085l0 0c2.5106812 0 4.5460205 2.0353088 4.5460205 4.5460205l0 18.183533l0 0c0 1.2056885 -0.4790039 2.361969 -1.331543 3.2145386c-0.85253906 0.85253906 -2.00885 1.3314819 -3.2144775 1.3314819l-204.32529 0c-2.5107117 0 -4.546051 -2.0353088 -4.546051 -4.5460205l0 -18.183533c0 -2.5107117 2.0353394 -4.5460205 4.546051 -4.5460205z" fill-rule="evenodd"/><path stroke="#000000" stroke-width="8.0" stroke-linejoin="round" stroke-linecap="butt" d="m578.20233 337.28085l0 0c2.5106812 0 4.5460205 2.0353088 4.5460205 4.5460205l0 18.183533l0 0c0 1.2056885 -0.4790039 2.361969 -1.331543 3.2145386c-0.85253906 0.85253906 -2.00885 1.3314819 -3.2144775 1.3314819l-204.32529 0c-2.5107117 0 -4.546051 -2.0353088 -4.546051 -4.5460205l0 -18.183533c0 -2.5107117 2.0353394 -4.5460205 4.546051 -4.5460205z" fill-rule="evenodd"/><path fill="#ffffff" d="m555.473 39.519775l0 0c0 -2.5107002 2.0353394 -4.5460205 4.5460205 -4.5460205l18.183533 0l0 0c1.2056885 0 2.3619995 0.47895432 3.2145386 1.3314972c0.85253906 0.8525467 1.3314819 2.0088425 1.3314819 3.2145233l0 441.5851c0 2.5107117 -2.0353394 4.5460205 -4.5460205 4.5460205l-18.183533 0c-2.5106812 0 -4.5460205 -2.0353088 -4.5460205 -4.5460205z" fill-rule="evenodd"/><path stroke="#000000" stroke-width="8.0" stroke-linejoin="round" stroke-linecap="butt" d="m555.473 39.519775l0 0c0 -2.5107002 2.0353394 -4.5460205 4.5460205 -4.5460205l18.183533 0l0 0c1.2056885 0 2.3619995 0.47895432 3.2145386 1.3314972c0.85253906 0.8525467 1.3314819 2.0088425 1.3314819 3.2145233l0 441.5851c0 2.5107117 -2.0353394 4.5460205 -4.5460205 4.5460205l-18.183533 0c-2.5106812 0 -4.5460205 -2.0353088 -4.5460205 -4.5460205z" fill-rule="evenodd"/><path fill="#ffffff" d="m365.25516 39.519432l0 0c0 -2.5105095 2.0351868 -4.545677 4.545685 -4.545677l18.18216 0l0 0c1.2055969 0 2.3618164 0.47891617 3.2142944 1.331398c0.852478 0.852478 1.3313904 2.0086899 1.3313904 3.2142792l0 441.58582c0 2.510498 -2.0351562 4.5456543 -4.545685 4.5456543l-18.18216 0c-2.510498 0 -4.545685 -2.0351562 -4.545685 -4.5456543z" fill-rule="evenodd"/><path stroke="#000000" stroke-width="8.0" stroke-linejoin="round" stroke-linecap="butt" d="m365.25516 39.519432l0 0c0 -2.5105095 2.0351868 -4.545677 4.545685 -4.545677l18.18216 0l0 0c1.2055969 0 2.3618164 0.47891617 3.2142944 1.331398c0.852478 0.852478 1.3313904 2.0086899 1.3313904 3.2142792l0 441.58582c0 2.510498 -2.0351562 4.5456543 -4.545685 4.5456543l-18.18216 0c-2.510498 0 -4.545685 -2.0351562 -4.545685 -4.5456543z" fill-rule="evenodd"/><path fill="#ffffff" d="m549.7664 397.91614l0 0c0 -3.8153381 3.0928955 -6.908264 6.908264 -6.908264l27.632263 0l0 0c1.8322144 0 3.5893555 0.72784424 4.8848877 2.0233765c1.2955322 1.2955627 2.0233765 3.0527039 2.0233765 4.8848877l0 80.82913c0 3.8153381 -3.0929565 6.908264 -6.908264 6.908264l-27.632263 0c-3.8153687 0 -6.908264 -3.092926 -6.908264 -6.908264z" fill-rule="evenodd"/><path stroke="#000000" stroke-width="8.0" stroke-linejoin="round" stroke-linecap="butt" d="m549.7664 397.91614l0 0c0 -3.8153381 3.0928955 -6.908264 6.908264 -6.908264l27.632263 0l0 0c1.8322144 0 3.5893555 0.72784424 4.8848877 2.0233765c1.2955322 1.2955627 2.0233765 3.0527039 2.0233765 4.8848877l0 80.82913c0 3.8153381 -3.0929565 6.908264 -6.908264 6.908264l-27.632263 0c-3.8153687 0 -6.908264 -3.092926 -6.908264 -6.908264z" fill-rule="evenodd"/><path fill="#ffffff" d="m357.90552 397.91614l0 0c0 -3.8153381 3.092926 -6.908264 6.908264 -6.908264l27.632263 0l0 0c1.8322144 0 3.5893555 0.72784424 4.8848877 2.0233765c1.2955627 1.2955627 2.023407 3.0527039 2.023407 4.8848877l0 80.82913c0 3.8153381 -3.0929565 6.908264 -6.9082947 6.908264l-27.632263 0c-3.8153381 0 -6.908264 -3.092926 -6.908264 -6.908264z" fill-rule="evenodd"/><path stroke="#000000" stroke-width="8.0" stroke-linejoin="round" stroke-linecap="butt" d="m357.90552 397.91614l0 0c0 -3.8153381 3.092926 -6.908264 6.908264 -6.908264l27.632263 0l0 0c1.8322144 0 3.5893555 0.72784424 4.8848877 2.0233765c1.2955627 1.2955627 2.023407 3.0527039 2.023407 4.8848877l0 80.82913c0 3.8153381 -3.0929565 6.908264 -6.9082947 6.908264l-27.632263 0c-3.8153381 0 -6.908264 -3.092926 -6.908264 -6.908264z" fill-rule="evenodd"/></g></svg>