<?xml version="1.0" encoding="UTF-8"?>
<svg xmlns="http://www.w3.org/2000/svg" xmlns:xlink="http://www.w3.org/1999/xlink" width="24pt" height="48pt" viewBox="0 0 960 540" version="1.1">
<g id="surface1">
<rect x="0" y="0" width="960" height="540" style="fill:rgb(100%,100%,100%);fill-opacity:0;stroke:none;"/>
<path style="fill-rule:evenodd;fill:rgb(100%,100%,100%);fill-opacity:1;stroke-width:8;stroke-linecap:butt;stroke-linejoin:round;stroke:rgb(0%,0%,0%);stroke-opacity:1;stroke-miterlimit:10;" d="M 578.203125 337.28125 C 580.714844 337.28125 582.75 339.316406 582.75 341.828125 L 582.75 360.011719 C 582.75 361.214844 582.269531 362.371094 581.417969 363.226562 C 580.5625 364.078125 579.40625 364.554688 578.203125 364.554688 L 373.878906 364.554688 C 371.367188 364.554688 369.332031 362.519531 369.332031 360.011719 L 369.332031 341.828125 C 369.332031 339.316406 371.367188 337.28125 373.878906 337.28125 Z M 578.203125 337.28125 "/>
<path style="fill-rule:evenodd;fill:rgb(100%,100%,100%);fill-opacity:1;stroke-width:8;stroke-linecap:butt;stroke-linejoin:round;stroke:rgb(0%,0%,0%);stroke-opacity:1;stroke-miterlimit:10;" d="M 555.472656 39.519531 C 555.472656 37.007812 557.507812 34.972656 560.019531 34.972656 L 578.203125 34.972656 C 579.410156 34.972656 580.566406 35.453125 581.417969 36.304688 C 582.269531 37.15625 582.75 38.3125 582.75 39.519531 L 582.75 481.105469 C 582.75 483.617188 580.714844 485.652344 578.203125 485.652344 L 560.019531 485.652344 C 557.507812 485.652344 555.472656 483.617188 555.472656 481.105469 Z M 555.472656 39.519531 "/>
<path style="fill-rule:evenodd;fill:rgb(100%,100%,100%);fill-opacity:1;stroke-width:8;stroke-linecap:butt;stroke-linejoin:round;stroke:rgb(0%,0%,0%);stroke-opacity:1;stroke-miterlimit:10;" d="M 365.253906 39.519531 C 365.253906 37.007812 367.289062 34.972656 369.800781 34.972656 L 387.984375 34.972656 C 389.1875 34.972656 390.34375 35.453125 391.199219 36.304688 C 392.050781 37.15625 392.527344 38.3125 392.527344 39.519531 L 392.527344 481.105469 C 392.527344 483.617188 390.492188 485.652344 387.984375 485.652344 L 369.800781 485.652344 C 367.289062 485.652344 365.253906 483.617188 365.253906 481.105469 Z M 365.253906 39.519531 "/>
<path style="fill-rule:evenodd;fill:rgb(100%,100%,100%);fill-opacity:1;stroke-width:8;stroke-linecap:butt;stroke-linejoin:round;stroke:rgb(0%,0%,0%);stroke-opacity:1;stroke-miterlimit:10;" d="M 549.765625 397.917969 C 549.765625 394.101562 552.859375 391.007812 556.675781 391.007812 L 584.308594 391.007812 C 586.140625 391.007812 587.894531 391.734375 589.191406 393.03125 C 590.488281 394.328125 591.214844 396.082031 591.214844 397.917969 L 591.214844 478.746094 C 591.214844 482.5625 588.121094 485.652344 584.308594 485.652344 L 556.675781 485.652344 C 552.859375 485.652344 549.765625 482.5625 549.765625 478.746094 Z M 549.765625 397.917969 "/>
<path style="fill-rule:evenodd;fill:rgb(100%,100%,100%);fill-opacity:1;stroke-width:8;stroke-linecap:butt;stroke-linejoin:round;stroke:rgb(0%,0%,0%);stroke-opacity:1;stroke-miterlimit:10;" d="M 357.90625 397.917969 C 357.90625 394.101562 361 391.007812 364.8125 391.007812 L 392.445312 391.007812 C 394.277344 391.007812 396.035156 391.734375 397.332031 393.03125 C 398.625 394.328125 399.355469 396.082031 399.355469 397.917969 L 399.355469 478.746094 C 399.355469 482.5625 396.261719 485.652344 392.445312 485.652344 L 364.8125 485.652344 C 361 485.652344 357.90625 482.5625 357.90625 478.746094 Z M 357.90625 397.917969 "/>
</g>
</svg>