<?xml version="1.0" standalone="no"?>
<!DOCTYPE svg PUBLIC "-//W3C//DTD SVG 20010904//EN"
 "http://www.w3.org/TR/2001/REC-SVG-20010904/DTD/svg10.dtd">
<svg version="1.0" xmlns="http://www.w3.org/2000/svg"
 width="490.000000pt" height="490.000000pt" viewBox="0 0 490.000000 490.000000"
 preserveAspectRatio="xMidYMid meet">
<metadata>
Created by potrace 1.14, written by Peter Selinger 2001-2017
</metadata>
<g transform="translate(0.000000,490.000000) scale(0.100000,-0.100000)"
fill="#000000" stroke="none">
<path d="M1392 4760 c-54 -22 -52 65 -52 -1823 l0 -1744 -26 -11 c-52 -24 -54
-46 -54 -494 0 -463 0 -466 70 -500 51 -26 319 -26 370 0 71 35 71 35 68 515
l-3 429 -32 29 c-33 29 -33 29 -33 124 l0 95 770 0 770 0 0 -99 c0 -80 -3
-100 -15 -105 -41 -15 -45 -56 -45 -488 0 -463 0 -466 70 -500 51 -26 319 -26
370 0 70 34 70 37 70 502 0 452 0 449 -57 485 l-32 20 -1 1747 c0 1265 -3
1754 -11 1772 -21 46 -63 58 -181 54 -102 -3 -109 -4 -135 -31 l-28 -27 -3
-1485 -2 -1485 -770 0 -770 0 0 1469 c0 931 -4 1479 -10 1495 -18 49 -64 66
-175 65 -55 0 -110 -4 -123 -9z m218 -1820 l0 -1740 -90 0 -90 0 0 1740 0
1740 90 0 90 0 0 -1740z m1900 0 l0 -1740 -90 0 -90 0 0 1740 0 1740 90 0 90
0 0 -1740z m-270 -1380 l0 -90 -770 0 -770 0 0 90 0 90 770 0 770 0 0 -90z
m-1565 -875 l0 -420 -160 0 -160 0 -3 423 -2 422 162 -2 163 -3 0 -420z m1920
0 l0 -420 -160 0 -160 0 -3 423 -2 422 162 -2 163 -3 0 -420z"/>
</g>
</svg>
